<svg xmlns="http://www.w3.org/2000/svg" xmlns:xlink="http://www.w3.org/1999/xlink" width="96" height="20" fill="none" xmlns:v="https://vecta.io/nano"><path d="M2.312 3.374h7.997l-.54 2.769H4.846l-.443 2.368h3.836l-.533 2.562H3.87l-.824 4.258H0L2.312 3.374zm9.375 0h3.046l-1.793 9.229h5.303l-.519 2.728h-8.35l2.312-11.957zm13.424 0h3.462l1.738 11.957h-3.102l-.27-2.513h-3.835l-1.239 2.513h-3.282l6.529-11.957zm1.648 7.186l-.45-4.41-2.146 4.41h2.596zm17.744-7.186h3.046l-.845 4.41h4.23l.845-4.41h3.046l-2.312 11.957h-3.046l.9-4.715h-4.23l-.9 4.715h-3.046l2.312-11.957z" fill="#fff"/><path d="M40.336.993c-.23 2.926-1.107 5.763-2.569 8.308l-.498.858a1.59 1.59 0 0 1-.583.592c-.243.142-.52.217-.802.218h-4.036a.92.92 0 0 1-.741-.428.92.92 0 0 1-.069-.853A23.96 23.96 0 0 1 38.55.425l.346-.249c.141-.104.309-.164.484-.175s.349.03.501.117.276.215.357.37.115.331.098.505z" fill="url(#A)"/><use xlink:href="#D" fill="url(#B)"/><use xlink:href="#D" fill="url(#B)"/><path d="M37.92 10.978a1.84 1.84 0 0 1 .815.195c.253.127.473.31.644.536a1.84 1.84 0 0 1 .306 1.603c.833-1.188 1.558-2.449 2.167-3.766a.92.92 0 0 0-.056-.878.92.92 0 0 0-.768-.43h-6.058c-.28-.005-.556-.073-.806-.201s-.467-.311-.634-.535-.282-.485-.334-.76-.039-.559.036-.829c-.843 1.192-1.578 2.457-2.195 3.78a.92.92 0 0 0 .065.858.92.92 0 0 0 .745.43h6.058.014z" fill="url(#C)"/><path d="M57.042 12.59a4.94 4.94 0 0 0 1.482 1.17c.552.248 1.153.368 1.758.353.657.021 1.301-.181 1.828-.575a1.9 1.9 0 0 0 .734-1.592c.003-.237-.039-.472-.125-.692a1.43 1.43 0 0 0-.395-.526 3.11 3.11 0 0 0-.692-.429l-.969-.429c-.385-.171-.76-.365-1.122-.582a4.79 4.79 0 0 1-.928-.692c-.259-.247-.472-.538-.63-.859a2.59 2.59 0 0 1-.235-1.115 3.33 3.33 0 0 1 .289-1.352c.19-.425.466-.807.812-1.119a4.04 4.04 0 0 1 1.316-.768 4.9 4.9 0 0 1 1.738-.291 4.19 4.19 0 0 1 2.077.478 4.43 4.43 0 0 1 1.468 1.274l-1.17.969a4.05 4.05 0 0 0-.983-.893 2.64 2.64 0 0 0-1.468-.381 2.68 2.68 0 0 0-1.759.512c-.198.161-.355.365-.461.597s-.156.485-.148.739a1.75 1.75 0 0 0 .131.692 1.5 1.5 0 0 0 .409.512 3.38 3.38 0 0 0 .692.422l.948.429a12.51 12.51 0 0 1 1.177.561 4.46 4.46 0 0 1 .879.685 2.7 2.7 0 0 1 .609.886c.163.376.245.781.242 1.191a3.91 3.91 0 0 1-.346 1.689 3.46 3.46 0 0 1-.962 1.212 4.05 4.05 0 0 1-1.385.692 5.87 5.87 0 0 1-1.696.242c-.357-.003-.713-.033-1.066-.09a4.82 4.82 0 0 1-1.115-.284 5.47 5.47 0 0 1-1.073-.616 5.09 5.09 0 0 1-.997-.976l1.135-1.046zm14.636-9.216h1.71l2.188 11.957h-1.758l-.54-3.351h-4.736l-1.828 3.351h-1.828l6.792-11.957zm1.385 7.186l-.865-5.324-2.963 5.324h3.829zm6.286-7.186h1.655l-2.029 10.468h5.968l-.284 1.489h-7.616l2.305-11.957zm9.43 0H96l-.284 1.523h-5.594l-.692 3.496h4.209l-.284 1.502h-4.23l-.755 3.891h6.003l-.284 1.544h-7.616l2.305-11.957z" fill="#fff"/><defs><linearGradient id="A" x1="36.611" y1="5.763" x2="32.977" y2="11.669" gradientUnits="userSpaceOnUse"><stop stop-color="#fff"/><stop offset="1" stop-color="#8fd8fa"/></linearGradient><linearGradient id="B" x1="519.624" y1="235.562" x2="581.833" y2="139.269" gradientUnits="userSpaceOnUse"><stop stop-color="#fff"/><stop offset="1" stop-color="#8fd8fa"/></linearGradient><linearGradient id="C" x1="607.34" y1="104.493" x2="618.857" y2="176.02" gradientUnits="userSpaceOnUse"><stop stop-color="#fff"/><stop offset="1" stop-color="#8fd8fa"/></linearGradient><path id="D" d="M32.54 18.219a19.79 19.79 0 0 1 2.569-8.308l.492-.852a1.62 1.62 0 0 1 1.385-.817h4.009a.92.92 0 0 1 .768.43.92.92 0 0 1 .056.878 23.88 23.88 0 0 1-7.47 9.236l-.346.249c-.141.11-.311.177-.489.191s-.357-.025-.513-.113-.283-.219-.364-.378-.114-.339-.094-.517z"/></defs></svg>