<svg xmlns="http://www.w3.org/2000/svg" width="25" height="24" fill="none" xmlns:v="https://vecta.io/nano"><path fill-rule="evenodd" d="M16.699 6.5a4.5 4.5 0 0 1-9 0 4.5 4.5 0 0 1 9 0zm3.485 12.089a17.81 17.81 0 0 0-1.749-6.099c-.724-1.463-2.379-1.917-3.73-1.153a5.07 5.07 0 0 1-5.01 0c-1.351-.764-3.006-.31-3.73 1.153-.928 1.875-1.53 3.942-1.749 6.099-.138 1.359.661 2.63 1.881 2.928a25.61 25.61 0 0 0 12.208 0c1.218-.299 2.017-1.569 1.879-2.928zM11.199 15a1 1 0 1 0 2 0 1 1 0 1 0-2 0zm0 3a1 1 0 1 0 2 0 1 1 0 1 0-2 0z" fill="#0095da"/></svg>