<svg xmlns="http://www.w3.org/2000/svg" width="25" height="24"><g fill="none" fill-rule="evenodd"><path d="M-3-4h32v32H-3z"/><g fill-rule="nonzero"><path fill="#858585" d="M12.8 11.4a3.1 3.1 0 0 0 4.3 0l4.1-4.2a1.6 1.6 0 0 0 0-2.2l-2.1-2.1a1.6 1.6 0 0 0-2.3 0l-4 4.2a3 3 0 0 0 0 4.3zm2-3.5c.8 0 1.5.6 1.5 1.4s-.7 1.5-1.5 1.5a1.5 1.5 0 0 1-1.5-1.5c0-.8.7-1.4 1.5-1.4z"/><path fill="#BDBDBD" d="M23.5 14.4L14.9 23a3.4 3.4 0 0 1-4.8 0l-8.6-8.6a3.4 3.4 0 0 1 0-4.8L10.1 1a3.4 3.4 0 0 1 4.8 0l.9.8L11.6 6a4.6 4.6 0 0 0-1.3 3.3 4.7 4.7 0 0 0 4.6 4.7c1.2 0 2.4-.5 3.3-1.4l4.2-4 1 1a3.5 3.5 0 0 1 0 5z"/></g></g></svg>