<svg xmlns="http://www.w3.org/2000/svg" width="18" height="18" fill="none" xmlns:v="https://vecta.io/nano"><path fill-rule="evenodd" d="M18.675 3.012c1.4-.143 2.555.99 2.303 2.26l-.334 1.677c-.836 4.209-.744 8.529.269 12.705.292 1.203-.708 2.345-2.054 2.345H5.165c-1.346 0-2.346-1.141-2.054-2.345a26.78 26.78 0 0 0 0-12.655l-.06-.249c-.272-1.12.578-2.207 1.822-2.334l13.802-1.404zm-2.163 5.987a1 1 0 1 0-2 0 1 1 0 1 0 2 0zm-8-1a1 1 0 1 1 0 2 1 1 0 1 1 0-2zm-1.25 4c0 2.619 2.131 4.75 4.75 4.75s4.75-2.13 4.75-4.75a.75.75 0 1 0-1.5 0c0 1.792-1.458 3.25-3.25 3.25s-3.25-1.458-3.25-3.25a.75.75 0 1 0-1.5 0z" fill="#858585"/></svg>