<svg width="24" height="24" viewBox="0 0 24 24" fill="none" xmlns="http://www.w3.org/2000/svg">
    <path fill-rule="evenodd" clip-rule="evenodd" d="M18.9657 3.42375C20.3438 3.59275 21.4517 4.74575 21.6798 6.24875C22.1077 9.07575 22.1077 11.9618 21.6798 14.7898C21.4517 16.2928 20.3438 17.4467 18.9657 17.6147C18.5455 17.6656 18.1238 17.6999 17.7021 17.7342L17.702 17.7342L17.702 17.7342C17.5096 17.7499 17.3171 17.7655 17.1248 17.7828L13.6718 20.6607C13.3787 20.9047 13.0098 21.0387 12.6278 21.0387C11.4738 21.0387 10.6838 19.8738 11.1128 18.8018L11.4248 18.0218C9.29175 17.9998 7.15875 17.8737 5.03575 17.6147C3.65775 17.4458 2.54975 16.2928 2.32175 14.7898C1.89275 11.9628 1.89275 9.07675 2.32175 6.24875C2.54975 4.74575 3.65875 3.59175 5.03575 3.42375C9.66475 2.85875 14.3368 2.85875 18.9657 3.42375ZM18.5007 10.5388C18.5007 9.71075 17.8287 9.03875 17.0007 9.03875C16.1727 9.03875 15.5007 9.71075 15.5007 10.5388C15.5007 11.3667 16.1727 12.0387 17.0007 12.0387C17.8287 12.0387 18.5007 11.3667 18.5007 10.5388ZM7.00075 12.0387C6.17275 12.0387 5.50075 11.3667 5.50075 10.5388C5.50075 9.71075 6.17275 9.03875 7.00075 9.03875C7.82875 9.03875 8.50075 9.71075 8.50075 10.5388C8.50075 11.3667 7.82975 12.0387 7.00075 12.0387ZM12.0007 9.03875C11.1727 9.03875 10.5007 9.71075 10.5007 10.5388C10.5007 11.3667 11.1727 12.0387 12.0007 12.0387C12.8287 12.0387 13.5007 11.3667 13.5007 10.5388C13.5007 9.71075 12.8287 9.03875 12.0007 9.03875Z" fill="white"/>
</svg>
