<?xml version="1.0" encoding="UTF-8"?>
<svg width="23px" height="23px" viewBox="0 0 23 23" version="1.1" xmlns="http://www.w3.org/2000/svg" xmlns:xlink="http://www.w3.org/1999/xlink">
    <title>facebook (1)@2x</title>
    <g id="Symbols" stroke="none" stroke-width="1" fill="none" fill-rule="evenodd">
        <g id="MW-Login" transform="translate(-48.000000, -602.000000)" fill="#FFFFFF" fill-rule="nonzero">
            <g id="Group-9">
                <g id="Group-11">
                    <g id="Group-10" transform="translate(16.000000, 309.000000)">
                        <g id="login-with" transform="translate(16.000000, 282.000000)">
                            <g id="Group-4">
                                <g id="facebook-(1)" transform="translate(16.000000, 11.000000)">
                                    <path d="M0,0 L0,23 L12.2489018,23 L12.2489018,14.1155794 L9.25460689,14.1155794 L9.25460689,10.4887126 L12.2489018,10.4887126 L12.2489018,7.44278849 C12.2489018,5.22757554 14.0446712,3.43180611 16.2598841,3.43180611 L19.3901916,3.43180611 L19.3901916,6.69318017 L17.1502995,6.69318017 C16.4464156,6.69318017 15.8757685,7.26382727 15.8757685,7.96771114 L15.8757685,10.4887631 L19.3339192,10.4887631 L18.8559827,14.1156299 L15.8757685,14.1156299 L15.8757685,23 L23,23 L23,0 L0,0 Z" id="Shape"></path>
                                </g>
                            </g>
                        </g>
                    </g>
                </g>
            </g>
        </g>
    </g>
</svg>