<svg xmlns="http://www.w3.org/2000/svg" width="25" height="24" fill="none" xmlns:v="https://vecta.io/nano"><path fill-rule="evenodd" d="M15.577 3.419a32.72 32.72 0 0 1 5.753 5.893 1.68 1.68 0 0 1-1.337 2.689c-4.789-.663-9.645-.677-14.438-.042l-.319.042c-1.276 0-1.916-1.786-1.013-2.689l.337-.43c.391-.499.798-.984 1.217-1.459V4.501a1.5 1.5 0 0 1 1.5-1.5c.812 0 1.47.647 1.495 1.453l.148-.13.739-.634.996-.811a3 3 0 0 1 4.243 0l.679.54zm-9.765 9.516c2.249-.293 4.538-.443 6.806-.443a52.77 52.77 0 0 1 7.126.486c.054 2.115-.03 4.232-.293 6.335a2.75 2.75 0 0 1-2.339 2.38c-2.876.411-5.795.411-8.67 0a2.75 2.75 0 0 1-2.339-2.38c-.264-2.117-.348-4.249-.291-6.378zm7.375 7.066c.633 0 1.195-.459 1.395-1.14a4.86 4.86 0 0 0 0-2.721c-.2-.681-.762-1.14-1.395-1.14h-.821c-.633 0-1.195.459-1.395 1.14-.26.883-.26 1.838 0 2.721.2.681.762 1.14 1.395 1.14h.821z" fill="#0095da"/></svg>