<svg xmlns="http://www.w3.org/2000/svg" width="25" height="24" fill="none" xmlns:v="https://vecta.io/nano"><path fill-rule="evenodd" d="M4.861 11.152a9.29 9.29 0 0 0 4.507 0 3 3 0 0 0 2.183-2.183c.37-1.48.37-3.028 0-4.508a3 3 0 0 0-2.183-2.183 9.29 9.29 0 0 0-4.507 0 3 3 0 0 0-2.183 2.183c-.37 1.48-.37 3.028 0 4.508a3 3 0 0 0 2.183 2.183zm14.935-8.873a3 3 0 0 1 2.183 2.183 9.29 9.29 0 0 1 0 4.507 3 3 0 0 1-2.183 2.183c-1.48.37-3.028.37-4.508 0a3 3 0 0 1-2.183-2.183 9.29 9.29 0 0 1 0-4.507 3 3 0 0 1 2.183-2.183c1.48-.37 3.028-.37 4.508 0zM9.368 21.58a9.29 9.29 0 0 1-4.507 0 3 3 0 0 1-2.183-2.183c-.37-1.48-.37-3.028 0-4.508a3 3 0 0 1 2.183-2.183 9.29 9.29 0 0 1 4.507 0 3 3 0 0 1 2.183 2.183c.37 1.48.37 3.028 0 4.508a3 3 0 0 1-2.183 2.183zm5.921 0a9.29 9.29 0 0 0 4.507 0 3 3 0 0 0 2.183-2.183c.37-1.48.37-3.028 0-4.508a3 3 0 0 0-2.183-2.183 9.29 9.29 0 0 0-4.507 0 3 3 0 0 0-2.183 2.183c-.37 1.48-.37 3.028 0 4.508a3 3 0 0 0 2.183 2.183z" fill="#0095da"/></svg>