<svg xmlns="http://www.w3.org/2000/svg" width="25" height="24" fill="none" xmlns:v="https://vecta.io/nano"><path d="M17.892 6.265a3.18 3.18 0 0 0-2.755-1.601h-5.072c-1.137 0-2.187.61-2.755 1.601l-2.5 4.361a3.22 3.22 0 0 0 .058 3.295l2.426 3.906c.581.936 1.6 1.504 2.697 1.504h5.22c1.097 0 2.116-.568 2.697-1.504l2.426-3.906a3.22 3.22 0 0 0 .058-3.295l-2.5-4.361zM15.35 2a5.56 5.56 0 0 1 4.821 2.802l2.686 4.685c1.028 1.794.989 4.011-.105 5.767l-2.556 4.115c-1.017 1.637-2.8 2.632-4.719 2.632H9.721a5.56 5.56 0 0 1-4.719-2.632l-2.556-4.115c-1.09-1.756-1.129-3.974-.101-5.767l2.686-4.685A5.56 5.56 0 0 1 9.852 2h5.498zm-.212 1.663h-5.072a4.19 4.19 0 0 0-3.622 2.104l-2.5 4.361a4.21 4.21 0 0 0 .076 4.32l2.426 3.906a4.15 4.15 0 0 0 3.546 1.976h5.22a4.15 4.15 0 0 0 3.546-1.976l2.426-3.906a4.21 4.21 0 0 0 .076-4.32l-2.5-4.361c-.744-1.298-2.132-2.104-3.622-2.104zm1.883 4.514c.519.376.631 1.099.25 1.614l-4.666 6.382a1.17 1.17 0 0 1-.852.468l-.089.003c-.308 0-.605-.121-.825-.338l-3.5-2.98c-.456-.451-.456-1.182 0-1.633s1.194-.451 1.65 0l2.539 2.028 3.862-5.296c.382-.514 1.111-.625 1.631-.248z" fill="#0095da"/></svg>