<svg xmlns="http://www.w3.org/2000/svg" width="25" height="23"><g fill="none" fill-rule="evenodd"><path d="M-3-12h284v48H-3z"/><path d="M-3-4h32v32H-3z"/><g fill-rule="nonzero"><g transform="translate(1.29 3.86)"><path fill="#BDBDBD" d="M0 16.15V2.5A2.53 2.53 0 012.57 0h15.44a3.8 3.8 0 013.8 3.8v11.06a3.8 3.8 0 01-3.8 3.8H2.57A2.57 2.57 0 010 16.15z"/><path fill="#858585" d="M11.77 9.33a2.75 2.75 0 012.77-2.77h7.33c.71 0 1.3.58 1.3 1.29v2.96c0 .7-.59 1.29-1.3 1.29h-7.33a2.75 2.75 0 01-2.77-2.77z"/><circle cx="14.6" cy="9.33" r="1.54" fill="#FFF"/></g><circle cx="6.11" cy="6.11" r="6.11" fill="#858585"/><circle cx="6.11" cy="6.11" r="4.83" fill="#FFF"/><path fill="#858585" d="M9 7.08H5.8c-.39 0-.64-.26-.64-.65V3.22c0-.39.25-.65.64-.65s.64.26.64.65v2.57h2.58c.38 0 .64.26.64.64s-.26.65-.64.65z"/></g></g></svg>