<svg xmlns="http://www.w3.org/2000/svg" width="24" height="28" viewBox="0 0 24 28">
    <g fill="none" fill-rule="evenodd">
        <path fill="#BDBDBD" fill-rule="nonzero" d="M6.478 27.46l-2-4-4 1c-.4 0-.6-.2-.4-.6l4.6-9.2 7 3.4-4.6 9.4c0 .2-.6.2-.6 0zM17.278 27.46l2-4 4 1c.4 0 .6-.2.4-.6l-4.6-9.2-7.2 3.4 4.6 9.4c.2.2.6.2.8 0z"/>
        <path fill="#858585" d="M11.678 1.06c4.4-1.4 3.4-2 5.8 2 4.4 1.6 4 .6 3.2 5.2 2.2 4.2 2.6 3-1 6-1 4.6-.2 4-4.8 4-3.8 2.8-2.6 3-6.4.2-4.6-.2-4 .8-4.8-3.8-3.6-3-3.6-2-1.2-6-.8-4.6-1.2-3.8 3-5.4 2.8-4 1.6-3.6 6.2-2.2z"/>
        <path d="M-4-2h32v32H-4z"/>
    </g>
</svg>
